<?xml version="1.0" encoding="UTF-8" standalone="no"?>
<!DOCTYPE svg PUBLIC "-//W3C//DTD SVG 1.1//EN" "http://www.w3.org/Graphics/SVG/1.1/DTD/svg11.dtd">
<svg width="456" height="456" viewBox="0 0 456 456" version="1.1" xmlns="http://www.w3.org/2000/svg"
     xmlns:xlink="http://www.w3.org/1999/xlink" xml:space="preserve" xmlns:serif="http://www.serif.com/"
     style="fill-rule:evenodd;clip-rule:evenodd;stroke-linejoin:round;stroke-miterlimit:2;">
<g transform="translate(0.000000,456.000000) scale(0.100000,-0.100000)"
   fill="#FFFFFF" stroke="none">
<path d="M3133 3055 c0 -181 2 -318 4 -303 4 24 9 27 51 31 l47 3 -47 2 c-46
2 -48 3 -48 31 0 28 2 30 48 34 l47 3 -47 2 c-46 2 -48 3 -48 31 0 28 2 30 48
34 l47 3 -47 2 c-48 2 -48 2 -48 37 l0 34 103 4 102 3 -102 2 -103 2 0 29 c0
28 2 30 48 34 l47 3 -47 2 c-46 2 -48 3 -48 31 0 28 2 30 48 34 l47 3 -47 2
c-48 2 -48 2 -48 36 0 34 1 35 48 39 l47 3 -47 2 c-46 2 -48 3 -48 32 l0 29
103 4 102 3 -102 2 -102 2 -4 43 c-2 23 -4 -106 -4 -288z"/>
    <path d="M3424 3055 c0 -181 2 -257 3 -168 2 89 2 237 0 330 -1 92 -3 20 -3
-162z"/>
    <path d="M1904 3244 c-57 -20 -114 -72 -144 -130 -20 -40 -25 -63 -25 -129 0
-66 5 -89 25 -129 48 -94 139 -146 254 -146 151 1 269 122 269 275 0 111 -64
209 -167 256 -50 23 -152 24 -212 3z"/>
    <path d="M1480 2814 c-67 -24 -122 -68 -193 -153 -126 -150 -197 -274 -262
-461 -74 -211 -41 -321 120 -396 100 -47 136 -49 293 -19 79 15 145 25 148 22
3 -3 -38 -91 -90 -196 -80 -159 -96 -199 -96 -237 0 -116 125 -186 223 -125
30 18 59 68 212 369 189 369 203 408 172 468 -48 92 -100 100 -346 50 -96 -20
-179 -36 -184 -36 -12 0 40 90 119 209 l63 95 -72 43 c-84 50 -114 80 -123
128 -8 45 20 102 66 133 47 32 97 25 175 -22 l60 -36 3 25 c5 41 -30 97 -77
124 -56 31 -149 37 -211 15z"/>
    <path d="M2348 2742 c-9 -4 -83 -68 -164 -142 -80 -74 -152 -136 -158 -138 -6
-1 -99 50 -206 113 -219 130 -241 136 -292 85 -27 -27 -30 -36 -25 -71 3 -22
10 -46 17 -54 6 -7 118 -77 249 -154 191 -113 245 -141 275 -141 33 0 49 11
154 109 223 206 229 211 255 211 30 0 75 34 88 68 12 32 -5 87 -34 107 -22 15
-126 20 -159 7z"/>
    <path d="M2580 2665 l0 -35 480 0 480 0 0 35 0 35 -480 0 -480 0 0 -35z"/>
    <path d="M3420 1925 l0 -685 -140 0 -140 0 0 34 c0 34 1 35 48 39 l47 3 -47 2
c-46 2 -48 3 -48 31 0 28 2 30 48 34 l47 3 -47 2 c-46 2 -48 3 -48 31 0 28 2
30 48 34 l47 3 -47 2 c-48 2 -48 2 -48 37 l0 34 103 4 102 3 -102 2 -103 2 0
29 c0 28 2 30 48 34 l47 3 -47 2 c-46 2 -48 3 -48 31 0 28 2 30 48 34 l47 3
-47 2 c-48 2 -48 2 -48 36 0 34 1 35 48 39 l47 3 -47 2 c-46 2 -48 3 -48 32
l0 29 103 4 102 3 -102 2 -103 2 0 29 c0 28 2 30 48 34 l47 3 -47 2 c-48 2
-48 2 -48 36 0 34 1 35 48 39 l47 3 -47 2 c-46 2 -48 3 -48 31 0 28 2 30 48
34 l47 3 -47 2 c-46 2 -48 3 -48 32 l0 29 103 4 102 3 -102 2 -103 2 0 34 c0
34 1 35 48 39 l47 3 -47 2 c-46 2 -48 3 -48 31 0 28 2 30 48 34 l47 3 -47 2
c-48 2 -48 2 -48 36 0 34 1 35 48 39 l47 3 -47 2 c-46 2 -48 3 -48 32 l0 29
103 4 102 3 -102 2 -103 2 0 29 c0 28 2 30 48 34 l47 3 -47 2 c-48 2 -48 2
-48 36 0 34 1 35 48 39 l47 3 -47 2 c-35 2 -48 6 -51 20 -3 9 -5 -292 -6 -670
l-1 -688 150 0 150 0 0 690 c0 380 -2 690 -5 690 -3 0 -5 -308 -5 -685z"/>
    <path d="M2635 2586 c-42 -18 -92 -78 -105 -125 -23 -86 30 -189 113 -220 66
-25 164 -4 209 46 26 28 48 88 48 128 0 40 -22 100 -48 128 -47 52 -150 72
-217 43z"/>
    <path d="M2473 2208 c-11 -13 -25 -33 -32 -44 -17 -35 -39 -179 -46 -316 -6
-110 -5 -131 9 -153 17 -26 68 -35 81 -15 20 32 25 -7 25 -189 0 -196 0 -200
24 -228 34 -39 98 -39 132 0 23 27 24 33 24 198 l0 170 23 -3 c21 -3 22 -6 24
-138 1 -74 2 -152 2 -172 1 -68 64 -105 126 -75 47 23 55 60 55 272 0 139 3
176 12 167 19 -19 63 -14 83 8 16 18 17 34 11 168 -9 218 -37 336 -85 362 -31
16 -55 12 -116 -20 -43 -22 -70 -30 -109 -30 -56 1 -118 19 -145 44 -26 23
-74 20 -98 -6z"/>
</g>
</svg>