<?xml version="1.0" encoding="UTF-8" standalone="no"?>
<!DOCTYPE svg PUBLIC "-//W3C//DTD SVG 1.1//EN" "http://www.w3.org/Graphics/SVG/1.1/DTD/svg11.dtd">
<svg width="456" height="456" viewBox="0 0 456 456" version="1.1" xmlns="http://www.w3.org/2000/svg" xmlns:xlink="http://www.w3.org/1999/xlink" xml:space="preserve" xmlns:serif="http://www.serif.com/" style="fill-rule:evenodd;clip-rule:evenodd;stroke-linejoin:round;stroke-miterlimit:2;">
    <path id="path4119" fill="none" stroke="#FFA903" stroke-width="3" d="M109.285,338.969c0.715-10,1.429-13.036,2.5-21.25
		c1.069-8.214,1.605-9.464,3.215-18.036c1.604-8.571,2.679-14.286,4.285-20c1.605-5.714,4.819-13.929,6.784-18.393
		c1.966-4.464,3.395-7.322,3.395-7.322c4.286-8.571,3.393-6.071,7.321-11.071c3.928-5,6.25-7.321,9.819-11.071
		c3.572-3.75,6.25-5.357,11.431-9.107c5.179-3.75,10.355-6.786,15.355-9.643c5-2.857,10.895-6.25,15.357-8.393
		s15.179-6.429,20.179-8.214c5-1.785,16.428-5.178,16.428-5.178c8.75-2.679,30.715-9.464,41.786-12.322
		c11.071-2.857,24.286-6.071,35.355-8.75c11.071-2.678,27.68-6.607,36.25-8.571c8.571-1.964,51.606-10.179,51.606-10.179
		c16.965-3.214,53.75-10,65.894-11.964c12.145-1.964,90.895-14.286,90.895-14.286c18.214-3.036,94.105-12.5,94.105-12.5"/>
    <path id="path4120" fill="none" stroke="#FFA903" stroke-width="3" d="M109.285,338.969c0.715-10,1.429-13.036,2.5-21.25
		c.069-8.214,1.605-9.464,3.215-18.036c1.604-8.571,2.679-14.286,4.285-20c1.605-5.714,4.819-13.929,6.784-18.393
		c1.966-4.464,3.395-7.322,3.395-7.322c4.286-8.571,3.393-6.071,7.321-11.071c3.928-5,6.25-7.321,9.819-11.071
		c3.572-3.75,6.25-5.357,11.431-9.107c5.179-3.75,10.355-6.786,15.355-9.643c5-2.857,10.895-6.25,15.357-8.393
		s15.179-6.429,20.179-8.214c5-1.785,16.428-5.178,16.428-5.178c8.75-2.679,30.715-9.464,41.786-12.322
		c11.071-2.857,24.286-6.071,35.355-8.75c11.071-2.678,27.68-6.607,36.25-8.571c8.571-1.964,51.606-10.179,51.606-10.179
		c16.965-3.214,53.75-10,65.894-11.964c12.145-1.964,90.895-14.286,90.895-14.286c18.214-3.036,94.105-12.5,94.105-12.5"/>
    <path id="path4143" fill="none" stroke="#FF0000" stroke-width="3" d="M108.923,318.717c2.523-33.587,2.523-31.314,4.293-44.194
		c1.768-12.879,3.283-20.96,5.304-31.062c2.021-10.102,3.535-13.637,7.828-24.244c4.294-10.606,8.587-15.91,14.396-23.233
		c5.808-7.324,20.2-17.425,20.2-17.425c11.87-8.586,13.135-8.333,21.974-13.384c8.839-5.051,15.657-7.576,25.001-11.364
		s25.506-8.586,37.628-12.122s25.759-6.313,40.911-10.102c15.15-3.789,53.789-11.111,75.509-15.91
		c21.719-4.798,77.527-13.637,77.527-13.637c21.468-4.041,28.789-4.293,41.416-6.313s36.113-5.051,54.551-7.829
		c18.435-2.778,106.063-13.132,106.063-13.132"/>
    <path id="path4143" fill="none" stroke="#FF0000" stroke-width="3" d="M108.923,318.717c2.523-33.587,2.523-31.314,4.293-44.194
		c2.021-10.102,3.535-13.637,7.828-24.244c4.294-10.606,8.587-15.91,14.396-23.233
		c5.808-7.324,20.2-17.425,20.2-17.425c11.87-8.586,13.135-8.333,21.974-13.384c8.839-5.051,15.657-7.576,25.001-11.364
		s25.506-8.586,37.628-12.122s25.759-6.313,40.911-10.102c15.15-3.789,53.789-11.111,75.509-15.91
		c21.719-4.798,77.527-13.637,77.527-13.637c21.468-4.041,28.789-4.293,41.416-6.313s36.113-5.051,54.551-7.829
		c18.435-2.778,106.063-13.132,106.063-13.132"/>
    <text transform="matrix(1 0 0 1 235 330)" font-family="'DejaVuSans'" font-size="30" font-weight="bold">Curvas por Edad</text>
</svg>